<?xml version="1.0" standalone="no"?>
<!DOCTYPE svg PUBLIC "-//W3C//DTD SVG 20010904//EN"
 "http://www.w3.org/TR/2001/REC-SVG-20010904/DTD/svg10.dtd">
<svg version="1.0" xmlns="http://www.w3.org/2000/svg"
 width="300.000000pt" height="221.000000pt" viewBox="0 0 300.000000 221.000000"
 preserveAspectRatio="xMidYMid meet">
<metadata>
Created by potrace 1.10, written by Peter Selinger 2001-2011
</metadata>
<g transform="translate(0.000000,221.000000) scale(0.100000,-0.100000)"
fill="#000000" stroke="none">
<path d="M1215 2076 c-171 -35 -326 -76 -415 -111 -52 -20 -55 -23 -58 -60 -2
-24 2 -41 10 -46 22 -14 78 -10 84 5 10 25 204 80 489 136 130 26 152 25 396
-29 226 -50 311 -76 334 -101 12 -13 31 -20 57 -20 38 0 38 0 38 40 0 36 -4
41 -37 58 -121 61 -551 163 -681 161 -31 0 -129 -15 -217 -33z m262 2 c6 -5
17 -8 25 -7 38 5 99 -2 93 -11 -4 -6 10 -10 34 -10 21 0 66 -6 98 -14 32 -8
93 -22 136 -31 56 -13 75 -21 65 -27 -9 -7 -6 -8 10 -5 28 6 92 -10 92 -24 0
-6 4 -8 10 -4 18 11 96 -48 85 -65 -2 -4 -16 -5 -30 -3 -13 3 -23 9 -20 12 11
18 -281 95 -533 140 l-102 19 -183 -38 c-296 -62 -400 -92 -438 -126 -15 -14
-49 -10 -49 6 0 11 51 60 64 61 6 1 15 1 20 0 4 -1 13 2 20 7 31 25 208 69
356 89 19 2 42 7 50 11 61 25 176 37 197 20z"/>
<path d="M1280 1933 c-93 -10 -230 -53 -230 -73 0 -18 30 -17 86 3 54 20 80
21 319 22 245 0 263 -2 319 -22 62 -23 85 -22 52 3 -35 25 -121 52 -200 63
-72 10 -267 12 -346 4z"/>
<path d="M210 1802 c0 -12 50 -57 90 -81 33 -20 49 -21 276 -21 l240 0 55 41
c30 22 54 45 54 52 0 9 -88 13 -357 15 -197 1 -358 -1 -358 -6z m625 -31 c18
-1 17 -4 -9 -27 l-28 -25 -227 3 c-215 3 -228 4 -254 25 l-28 22 33 3 c35 3
479 3 513 -1z"/>
<path d="M1962 1799 c2 -5 29 -28 62 -53 l58 -46 242 0 242 0 50 32 c27 18 53
35 57 39 4 3 5 13 1 23 -6 16 -32 17 -360 15 -195 -2 -353 -6 -352 -10z m634
-48 l-26 -26 -227 -2 c-188 -2 -231 0 -250 12 -55 36 -33 40 253 41 l276 2
-26 -27z"/>
<path d="M1575 1790 c113 -8 175 -23 175 -44 0 -7 -7 -21 -16 -32 -15 -18 -15
-18 -10 11 l6 30 -16 -29 c-13 -23 -14 -30 -3 -37 8 -5 20 -2 31 8 10 9 18 11
18 5 0 -17 55 2 58 21 2 9 -1 17 -7 17 -6 0 -11 -4 -11 -10 0 -5 -9 -10 -20
-10 -13 0 -20 7 -20 20 0 23 13 25 59 9 32 -11 40 -24 19 -33 -9 -3 -6 -11 11
-25 12 -12 27 -19 31 -16 9 5 75 -53 69 -59 -2 -2 -22 -13 -44 -24 l-40 -21
47 4 c25 2 60 11 77 19 38 20 44 20 37 -1 -3 -10 -10 -37 -16 -60 -15 -60 -52
-99 -111 -118 -49 -17 -50 -18 -29 -32 21 -15 56 -14 142 3 24 5 26 8 21 40
-7 42 25 167 41 161 16 -6 10 -56 -9 -77 -13 -15 -14 -19 -1 -29 9 -7 17 -8
20 -2 3 5 1 11 -6 13 -8 3 -6 11 6 29 18 24 18 24 13 -35 -2 -37 -10 -63 -19
-70 -13 -9 -13 -13 -2 -23 10 -10 16 -9 28 3 36 35 32 133 -6 187 -18 25 -19
29 -5 24 26 -10 21 18 -5 31 -13 6 -56 19 -95 29 -44 10 -73 23 -73 30 0 8
-12 19 -27 26 -16 6 -32 17 -38 24 -5 6 -38 21 -72 32 -51 17 -85 21 -190 19
l-128 -1 110 -7z"/>
<path d="M130 1766 c0 -62 36 -106 237 -291 191 -177 175 -168 317 -176 66 -4
123 -5 125 -3 2 1 -12 18 -30 37 -19 19 -40 42 -47 51 -9 11 -29 16 -71 16
-32 0 -74 6 -92 14 -19 8 -119 92 -223 188 -104 95 -195 177 -202 181 -10 6
-14 1 -14 -17z m175 -166 c11 -16 23 -30 26 -30 4 0 29 -20 55 -45 27 -25 52
-45 57 -45 4 0 7 -9 7 -20 0 -11 6 -20 14 -20 8 0 21 -6 29 -14 27 -27 89 -46
152 -46 56 0 65 -3 79 -25 9 -13 16 -27 16 -30 0 -3 -32 -5 -70 -5 -69 0 -130
19 -130 40 0 6 -7 10 -16 10 -8 0 -13 4 -10 8 2 4 -11 19 -31 32 -19 13 -39
34 -44 47 -6 16 -13 21 -25 16 -12 -4 -15 -3 -10 5 4 7 1 12 -8 12 -9 0 -16 7
-16 15 0 8 -4 15 -8 15 -12 0 -102 88 -102 100 0 19 15 10 35 -20z"/>
<path d="M1306 1782 c-2 -4 14 -6 37 -4 68 5 76 10 20 11 -28 0 -54 -2 -57 -7z"/>
<path d="M2555 1619 c-207 -194 -249 -221 -337 -218 -56 2 -60 1 -78 -28 -10
-17 -28 -37 -39 -45 -39 -27 -5 -36 119 -29 82 4 123 11 140 22 37 24 278 248
337 312 61 67 83 119 59 142 -8 8 -16 15 -18 14 -2 0 -84 -76 -183 -170z m175
108 c0 -26 -70 -103 -211 -232 -185 -170 -196 -177 -295 -173 -73 3 -77 4 -61
20 9 9 17 21 17 27 0 7 24 11 61 11 71 0 120 20 167 67 18 18 36 33 39 33 4 0
25 18 47 40 76 73 231 219 234 220 1 0 2 -6 2 -13z"/>
<path d="M1403 1769 c-85 -8 -106 -15 -161 -57 -44 -33 -29 -42 74 -42 77 0
84 2 179 51 55 28 94 44 87 36 -10 -12 -10 -16 0 -21 7 -3 3 -3 -9 -1 -12 3
-24 1 -28 -4 -4 -7 1 -8 11 -4 12 4 15 3 10 -5 -4 -7 -5 -12 -3 -12 14 0 97
42 97 49 0 20 -109 25 -257 10z m44 -49 c-55 -34 -75 -40 -121 -40 -86 0 -96
9 -39 38 30 15 75 27 123 32 41 4 81 8 89 8 8 1 -15 -16 -52 -38z"/>
<path d="M1225 1734 c-37 -28 -50 -33 -61 -23 -7 6 -21 8 -30 5 -13 -5 -14 -9
-4 -21 19 -23 36 -18 102 30 34 25 57 45 51 45 -6 0 -32 -16 -58 -36z"/>
<path d="M915 1666 c-67 -17 -100 -40 -141 -100 l-34 -51 21 -17 c16 -14 42
-18 103 -19 44 -1 88 -3 96 -3 74 -8 204 -17 295 -21 192 -8 203 -11 261 -72
40 -41 58 -53 81 -53 l30 0 5 83 c3 69 8 87 26 105 19 19 22 20 23 5 0 -11 6
-6 14 13 22 50 60 74 119 75 116 1 106 31 -14 45 -41 4 -109 7 -150 6 -67 -1
-83 -6 -165 -47 -49 -25 -81 -43 -70 -40 15 5 12 -2 -12 -27 -18 -19 -33 -37
-33 -40 0 -15 70 -37 99 -32 18 4 29 9 26 12 -5 6 -15 7 -82 11 -30 1 -29 12
5 33 15 10 48 32 74 48 37 24 56 31 88 28 40 -3 40 -3 24 -26 -15 -21 -17 -22
-28 -6 -11 15 -15 15 -42 0 -33 -18 -74 -51 -74 -60 0 -15 60 -4 86 16 15 13
36 22 45 20 18 -3 45 50 35 67 -7 10 101 28 111 18 8 -9 -57 -68 -68 -62 -26
16 -70 -124 -62 -197 2 -21 0 -38 -6 -38 -23 0 -41 14 -41 31 0 10 -17 31 -37
46 -21 15 -41 32 -44 36 -3 4 -46 10 -95 13 -49 2 -90 9 -92 14 -2 5 -12 5
-26 -1 -15 -7 -63 -7 -152 1 -71 6 -140 11 -154 10 -54 0 -130 12 -125 21 4 5
15 9 26 9 11 0 18 4 15 9 -3 5 0 14 8 20 7 6 21 29 31 50 16 36 37 50 72 51 7
0 -8 -19 -32 -41 -25 -23 -45 -49 -45 -58 0 -11 11 -4 33 20 17 20 40 42 50
49 20 14 107 24 107 12 0 -4 -18 -21 -40 -38 -22 -16 -40 -36 -40 -44 0 -8 15
0 38 22 20 20 56 45 80 57 23 12 42 25 42 30 0 5 -22 9 -49 9 -26 0 -75 2
-107 5 -34 4 -80 1 -109 -7z m-22 -32 c12 -4 11 -13 -10 -50 -23 -42 -43 -57
-43 -33 0 5 -4 7 -10 4 -18 -11 -10 12 10 30 12 10 19 24 16 31 -8 21 9 29 37
18z m-84 -60 c-11 -14 -11 -18 4 -29 9 -7 17 -15 17 -19 0 -10 -38 -7 -45 4
-7 11 20 60 31 60 4 0 0 -7 -7 -16z m728 -30 c-15 -13 -33 -24 -40 -24 -7 1 3
14 22 30 19 16 37 27 40 24 3 -3 -7 -17 -22 -30z"/>
<path d="M431 1639 c12 -17 40 -44 62 -60 39 -28 45 -30 131 -27 89 3 91 4 94
28 2 14 11 33 19 42 9 10 13 24 10 33 -5 13 -32 15 -172 15 l-166 0 22 -31z
m266 -34 l-10 -35 -63 0 c-68 0 -124 23 -124 52 0 14 14 16 104 17 l104 1 -11
-35z"/>
<path d="M2140 1663 c0 -5 7 -17 15 -27 8 -11 15 -28 15 -37 0 -38 27 -49 119
-49 l87 0 52 48 c75 67 66 72 -130 72 -87 0 -158 -3 -158 -7z m249 -65 c-28
-24 -42 -28 -92 -28 -69 0 -113 24 -93 52 9 12 33 16 106 17 52 1 97 4 100 7
2 3 6 0 9 -7 2 -7 -11 -26 -30 -41z"/>
<path d="M1206 1646 c-54 -20 -68 -37 -20 -24 53 14 204 22 215 11 5 -5 -15
-27 -46 -51 -30 -23 -55 -46 -55 -52 0 -14 29 0 40 19 5 10 36 32 69 50 33 17
63 36 66 41 4 6 -21 10 -62 10 -37 0 -90 2 -118 5 -31 3 -65 0 -89 -9z"/>
<path d="M1760 1594 c0 -4 8 -17 19 -28 37 -42 48 -104 31 -167 -15 -53 -46
-82 -81 -75 -38 7 -37 0 2 -20 27 -13 35 -14 56 -3 31 17 52 56 59 111 7 52
-29 153 -64 176 -12 8 -22 11 -22 6z"/>
<path d="M1905 1546 c-22 -7 -39 -16 -37 -19 1 -4 2 -20 2 -36 0 -57 62 -44
95 19 26 50 12 58 -60 36z m45 -12 c0 -13 -21 -42 -35 -48 -20 -7 -20 18 1 38
15 16 34 21 34 10z"/>
<path d="M1763 1513 c-13 -41 0 -62 24 -41 16 13 17 39 1 61 -12 15 -14 13
-25 -20z"/>
<path d="M570 1511 c0 -17 98 -81 124 -81 23 0 25 3 19 33 -3 17 -10 38 -16
45 -11 14 -127 17 -127 3z"/>
<path d="M2183 1483 c-13 -41 -6 -53 33 -53 25 0 106 58 101 74 -2 6 -30 12
-63 14 l-59 3 -12 -38z m87 11 c0 -12 -34 -33 -52 -34 -17 0 -17 1 0 19 16 18
52 28 52 15z"/>
<path d="M1704 1466 c-8 -21 15 -58 34 -54 23 4 26 32 7 52 -20 20 -34 20 -41
2z"/>
<path d="M820 1466 c0 -17 325 -56 468 -56 67 0 89 -12 132 -75 17 -25 38 -49
48 -53 17 -9 180 3 191 13 16 16 -31 25 -102 20 -75 -6 -78 -6 -100 20 -12 15
-35 43 -52 62 l-30 34 -175 9 c-172 10 -253 16 -337 26 -24 3 -43 3 -43 0z"/>
<path d="M764 1437 c14 -56 25 -74 55 -87 18 -7 34 -10 38 -7 8 9 -17 37 -33
37 -8 0 -20 15 -28 34 -18 43 -42 60 -32 23z"/>
<path d="M840 1403 c0 -5 13 -24 28 -42 l28 -34 170 -14 c93 -8 190 -11 216
-8 27 3 49 1 53 -5 3 -5 24 -10 46 -10 55 0 47 24 -9 28 -43 3 -55 15 -26 26
18 7 9 26 -13 26 -8 0 -28 -9 -43 -20 -28 -20 -35 -20 -197 -9 -110 7 -175 16
-188 25 -11 8 -30 21 -42 30 -13 9 -23 12 -23 7z"/>
<path d="M535 1136 c-91 -39 -87 -173 5 -221 51 -26 139 -16 162 19 12 18 9
63 -5 75 -17 13 -27 5 -27 -24 0 -31 -19 -45 -62 -45 -32 0 -40 4 -48 26 -42
108 44 194 112 112 21 -26 28 -30 33 -17 10 25 -12 69 -40 79 -36 14 -94 12
-130 -4z m11 -38 c-10 -14 -16 -44 -16 -78 -1 -52 -2 -54 -16 -35 -19 25 -13
89 12 116 24 26 39 24 20 -3z"/>
<path d="M870 1139 c0 -23 -83 -200 -98 -208 -25 -14 -3 -31 39 -31 36 0 40 2
34 20 -9 29 10 48 41 42 21 -4 24 -9 20 -27 -7 -28 8 -35 75 -35 52 0 61 9 29
31 -10 8 -38 57 -60 109 -23 52 -47 98 -53 102 -17 11 -27 10 -27 -3z m54 -93
c9 -19 16 -38 16 -44 0 -5 6 -15 14 -21 8 -6 16 -23 19 -36 6 -35 -17 -32 -43
5 -18 25 -28 30 -61 30 -23 0 -39 -5 -39 -12 0 -6 -3 -9 -6 -6 -3 4 6 31 21
62 31 66 55 73 79 22z"/>
<path d="M1070 1145 c0 -4 7 -13 15 -21 11 -11 15 -38 15 -99 0 -69 -3 -86
-17 -94 -28 -17 2 -31 65 -31 50 0 68 12 36 24 -11 4 -15 17 -13 48 3 28 -1
43 -10 46 -10 3 -12 -8 -10 -47 3 -40 1 -51 -11 -51 -12 0 -15 16 -15 90 1 57
5 94 13 102 9 9 12 3 12 -29 0 -23 5 -45 10 -48 6 -4 10 8 10 29 0 38 15 55
33 37 8 -8 8 -19 0 -41 -15 -39 1 -39 17 0 7 17 19 30 26 30 19 0 18 -35 -1
-54 -14 -13 -14 -19 -1 -50 15 -35 15 -35 -7 -23 -12 7 -25 16 -29 22 -14 19
-19 -3 -6 -29 15 -34 56 -56 103 -56 40 0 45 11 13 29 -13 7 -34 26 -47 42
-21 27 -22 32 -9 47 34 39 28 85 -13 110 -20 13 -179 28 -179 17z"/>
<path d="M1412 1138 c-27 -14 -38 -51 -24 -82 6 -13 31 -36 56 -52 48 -30 59
-58 27 -67 -23 -6 -51 9 -51 27 0 8 -7 17 -16 20 -22 8 -21 9 -26 -19 -7 -36
28 -65 81 -65 52 0 79 14 91 46 14 36 -3 68 -54 100 -50 32 -61 64 -22 64 13
0 26 -7 30 -15 3 -8 12 -15 21 -15 18 0 20 41 3 58 -15 15 -85 15 -116 0z
m118 -167 c0 -10 -6 -24 -14 -30 -12 -10 -14 -8 -11 16 2 15 4 29 4 31 1 1 6
2 11 2 6 0 10 -8 10 -19z"/>
<path d="M1620 1141 c0 -5 7 -14 15 -21 11 -9 15 -34 15 -96 0 -68 -3 -85 -17
-93 -28 -17 2 -31 65 -31 50 0 68 12 37 24 -22 8 -22 184 0 192 11 5 13 10 5
19 -12 14 -120 20 -120 6z m82 -121 c3 -90 1 -100 -14 -100 -16 0 -18 11 -18
84 0 46 3 91 6 100 14 37 23 10 26 -84z"/>
<path d="M1790 1141 c0 -5 8 -15 17 -22 9 -8 38 -60 64 -116 26 -55 52 -104
58 -108 6 -3 16 6 21 22 34 92 86 194 103 199 31 10 0 34 -45 34 -34 0 -39 -2
-33 -19 3 -11 -1 -36 -10 -56 -17 -43 -19 -59 -5 -50 15 9 12 -1 -12 -48 -20
-38 -23 -40 -26 -18 -2 13 -12 39 -23 58 -11 19 -21 51 -24 71 l-4 37 15 -34
c8 -18 13 -35 10 -38 -4 -5 30 -43 39 -43 3 0 -4 22 -15 50 -14 35 -16 51 -8
56 7 5 5 11 -7 21 -21 14 -115 18 -115 4z"/>
<path d="M2164 1136 c-34 -15 -64 -68 -64 -113 0 -38 32 -89 69 -108 17 -8 53
-15 81 -15 43 0 55 5 87 33 31 29 36 40 37 80 2 101 -109 167 -210 123z m9
-47 c-10 -20 -14 -47 -11 -79 l5 -49 -19 24 c-26 33 -23 75 7 108 33 35 37 34
18 -4z m107 6 c18 -21 18 -96 1 -128 -20 -38 -73 -38 -89 -2 -22 47 -10 116
22 137 19 13 53 9 66 -7z m70 -70 c0 -36 -6 -52 -26 -72 -32 -32 -40 -24 -19
17 9 17 17 45 17 60 1 16 5 27 10 24 4 -3 8 0 8 5 0 6 2 11 5 11 3 0 5 -20 5
-45z"/>
<path d="M660 796 c0 -24 181 -55 320 -56 l95 0 87 -63 c121 -86 276 -170 302
-163 31 8 253 142 310 187 l49 39 101 0 c91 0 194 10 269 26 15 3 27 12 27 21
0 12 -8 14 -37 9 -21 -3 -133 -6 -250 -6 l-211 0 -54 -46 c-81 -70 -185 -129
-228 -129 -43 0 -147 59 -228 129 l-54 46 -211 0 c-117 0 -229 3 -249 6 -21 4
-38 4 -38 0z m528 -64 c19 -15 28 -30 25 -39 -5 -12 -1 -14 18 -8 19 5 21 4 9
-4 -13 -9 -12 -12 8 -17 19 -5 32 -24 17 -24 -11 0 -85 53 -85 61 0 5 -5 9
-11 9 -13 0 -33 20 -42 42 -8 22 18 13 61 -20z m617 23 c-16 -9 -39 -25 -50
-35 -32 -29 -185 -125 -248 -156 l-57 -28 -55 29 c-40 20 -52 32 -45 39 8 8
15 7 23 -4 20 -25 140 -11 167 19 3 4 19 13 35 21 35 17 101 66 130 96 24 25
37 30 89 32 l41 2 -30 -15z"/>
</g>
</svg>
